<svg width="370" height="65" viewBox="0 0 370 65" fill="none" xmlns="http://www.w3.org/2000/svg">
<g clip-path="url(#clip0_1210_9191)">
<path d="M38.6909 1.33801C32.9332 1.3618 27.419 3.66321 23.3527 7.7395C19.2863 11.8158 16.9985 17.3357 16.9888 23.0934V40.7867L24.4822 36.4504C24.2588 35.8807 24.1783 35.265 24.2478 34.6571C24.3173 34.0491 24.5347 33.4675 24.8809 32.9629C25.2271 32.4584 25.6916 32.0463 26.2338 31.7627C26.776 31.4791 27.3794 31.3326 27.9913 31.3361C28.1782 31.3407 28.3643 31.3599 28.5482 31.3934L33.5069 22.5283C33.2382 22.0032 33.189 21.3929 33.3702 20.8315C33.5515 20.2702 33.9482 19.8038 34.4733 19.535C34.9984 19.2662 35.6087 19.217 36.1701 19.3983C36.7314 19.5795 37.1978 19.9763 37.4666 20.5014L46.8558 21.9263C47.3053 20.9064 48.1304 20.0987 49.1598 19.6709C50.1891 19.2432 51.3436 19.2282 52.3837 19.6292L57.5267 12.6067C57.356 12.2674 57.2663 11.8932 57.2646 11.5134C57.2638 11.0144 57.4111 10.5263 57.6877 10.111C57.9644 9.69563 58.3581 9.3717 58.8189 9.18016C59.2797 8.98862 59.787 8.93809 60.2765 9.03495C60.7661 9.13181 61.2159 9.37172 61.5691 9.72431C61.9223 10.0769 62.1629 10.5263 62.2606 11.0157C62.3582 11.5051 62.3085 12.0125 62.1177 12.4736C61.9269 12.9348 61.6036 13.329 61.1888 13.6063C60.7739 13.8837 60.286 14.0317 59.787 14.0317C59.6676 14.0291 59.5486 14.0182 59.4307 13.9989L54.2836 21.0378C54.7001 21.5682 54.9883 22.1878 55.1257 22.8481C55.263 23.5084 55.2457 24.1915 55.0752 24.844C54.9048 25.4965 54.5857 26.1008 54.143 26.6095C53.7002 27.1182 53.1458 27.5177 52.5231 27.7766C51.9003 28.0355 51.2262 28.1469 50.5532 28.1021C49.8803 28.0572 49.2269 27.8573 48.644 27.518C48.0612 27.1788 47.5647 26.7092 47.1934 26.1462C46.8221 25.5832 46.586 24.942 46.5036 24.2726L37.3151 22.8804C37.11 23.1697 36.8387 23.4058 36.5239 23.5689C36.2091 23.732 35.8598 23.8175 35.5052 23.8181L30.6693 32.4539C31.3321 33.1065 31.7293 33.9817 31.7843 34.9101C31.8392 35.8386 31.548 36.7545 30.9669 37.4808C30.3858 38.207 29.5561 38.6921 28.6382 38.8421C27.7202 38.9921 26.7793 38.7965 25.9972 38.293L16.9888 43.5097V58.2794C16.9888 59.5674 17.5004 60.8027 18.4112 61.7134C19.3219 62.6242 20.5571 63.1358 21.8451 63.1358C23.1331 63.1358 24.3684 62.6242 25.2791 61.7134C26.1899 60.8027 26.7015 59.5674 26.7015 58.2794V51.2815H45.0459C56.9944 51.2815 66.9364 41.4009 66.9364 29.4525V1.33801H38.6909Z" fill="url(#paint0_linear_1210_9191)"/>
<path d="M10.6338 43.178C10.1031 43.1756 9.58371 43.3306 9.14122 43.6235C8.69872 43.9163 8.35304 44.3339 8.14792 44.8232C7.9428 45.3126 7.88749 45.8519 7.98892 46.3727C8.09036 46.8936 8.34397 47.3726 8.71775 47.7493C9.09153 48.1259 9.56867 48.3832 10.0887 48.4886C10.6088 48.594 11.1485 48.5428 11.6394 48.3414C12.1303 48.1401 12.5505 47.7976 12.8467 47.3573C13.143 46.9171 13.302 46.3989 13.3036 45.8682C13.3052 45.5162 13.2374 45.1673 13.104 44.8415C12.9707 44.5158 12.7744 44.2195 12.5265 43.9696C12.2785 43.7197 11.9837 43.5212 11.6589 43.3854C11.3342 43.2495 10.9858 43.1791 10.6338 43.178Z" fill="url(#paint1_linear_1210_9191)"/>
<path d="M5.08935 52.5591C4.34411 52.5583 3.6154 52.7785 2.99535 53.192C2.37531 53.6054 1.89183 54.1935 1.60608 54.8818C1.32032 55.5701 1.2451 56.3276 1.39 57.0587C1.53489 57.7897 1.89335 58.4613 2.42003 58.9886C2.94672 59.5158 3.61796 59.875 4.34883 60.0207C5.0797 60.1664 5.83737 60.092 6.52597 59.807C7.21456 59.522 7.80316 59.0392 8.2173 58.4196C8.63142 57.8 8.85244 57.0715 8.85244 56.3262C8.85244 55.3278 8.45613 54.3703 7.75054 53.6639C7.04494 52.9575 6.08776 52.5602 5.08935 52.5591Z" fill="url(#paint2_linear_1210_9191)"/>
<path d="M100.392 36.958H90.3922L88.2722 43.288H82.7322L92.2022 17.358H98.6822L108.152 43.288H102.532L100.392 36.958ZM99.0522 32.958L96.6222 25.648L95.4422 21.718H95.3922L94.2922 25.568L91.7822 32.958H99.0522Z" fill="#0099FE"/>
<path d="M115.612 37.028C115.612 38.878 116.082 39.548 117.532 39.548C118.327 39.562 119.117 39.4122 119.852 39.108L119.382 42.838C118.25 43.4042 116.998 43.689 115.732 43.6681C111.922 43.6681 110.232 41.898 110.232 37.818V15.028H115.612V37.028Z" fill="#0099FE"/>
<path d="M140.822 45.028C140.822 49.318 136.432 51.708 130.262 51.708C123.462 51.708 120.602 49.708 120.602 46.878C120.602 45.148 121.742 43.738 124.172 43.148C123.343 42.8698 122.619 42.3437 122.099 41.6408C121.578 40.9379 121.286 40.0922 121.262 39.218C121.273 38.3031 121.582 37.4169 122.144 36.6946C122.705 35.9724 123.488 35.4537 124.372 35.218C123.411 34.7051 122.614 33.9325 122.071 32.9883C121.528 32.0441 121.262 30.9664 121.302 29.878C121.302 25.758 124.722 23.208 130.302 23.208C131.652 23.1943 132.998 23.3659 134.302 23.718C134.922 20.808 136.732 18.718 140.302 18.918L141.002 22.768C138.532 22.538 137.002 23.318 136.412 24.618C137.345 25.1368 138.118 25.9014 138.647 26.8288C139.176 27.7562 139.44 28.8108 139.412 29.878C139.412 33.968 136.002 36.518 130.412 36.518C129.223 36.5275 128.036 36.4102 126.872 36.168C126.439 36.2063 126.037 36.411 125.752 36.7393C125.467 37.0675 125.32 37.4936 125.342 37.928C125.342 38.998 126.212 39.548 127.582 39.548H134.222C138.392 39.598 140.822 41.518 140.822 45.028ZM136.432 45.578C136.432 44.578 135.682 43.928 133.432 43.928H128.092C125.812 43.928 124.832 44.558 124.832 45.698C124.832 47.118 126.642 48.018 130.642 48.018C134.502 48.028 136.392 46.938 136.392 45.598L136.432 45.578ZM126.722 29.868C126.717 30.3268 126.809 30.7816 126.991 31.2028C127.173 31.6241 127.441 32.0024 127.779 32.3134C128.116 32.6245 128.515 32.8612 128.95 33.0084C129.384 33.1556 129.845 33.21 130.302 33.168C132.422 33.168 133.912 31.878 133.912 29.868C133.912 27.858 132.422 26.608 130.302 26.608C129.846 26.5646 129.387 26.6173 128.953 26.7627C128.519 26.9081 128.12 27.143 127.783 27.4522C127.445 27.7614 127.177 28.1379 126.994 28.5575C126.811 28.9771 126.719 29.4303 126.722 29.888V29.868Z" fill="#0099FE"/>
<path d="M161.562 33.4681C161.562 39.8681 157.832 43.6781 151.502 43.6781C145.172 43.6781 141.452 39.8681 141.452 33.4681C141.452 27.0681 145.182 23.2581 151.502 23.2581C157.822 23.2581 161.562 27.0281 161.562 33.4681ZM146.832 33.4681C146.832 37.6281 148.482 39.6681 151.502 39.6681C154.522 39.6681 156.182 37.6681 156.182 33.4681C156.182 29.2681 154.532 27.2581 151.502 27.2581C148.472 27.2581 146.832 29.2981 146.832 33.4681Z" fill="#0099FE"/>
<path d="M176.952 23.6881L176.282 28.398C175.526 27.9837 174.673 27.7799 173.812 27.808C171.452 27.808 169.102 29.538 169.102 33.108V43.2881H163.722V23.648H168.392L168.742 27.498C169.134 26.2107 169.948 25.0927 171.053 24.3237C172.157 23.5547 173.488 23.1794 174.832 23.2581C175.563 23.2236 176.292 23.3713 176.952 23.6881Z" fill="#0099FE"/>
<path d="M178.482 17.948C178.482 16.028 179.582 15.048 181.822 15.048C184.062 15.048 185.162 16.048 185.162 17.948C185.162 19.848 184.062 20.818 181.822 20.818C179.582 20.818 178.482 19.878 178.482 17.948ZM184.482 43.288H179.102V23.648H184.482V43.288Z" fill="#0099FE"/>
<path d="M202.482 42.0279C200.911 43.1338 199.022 43.6988 197.102 43.6379C193.212 43.6379 190.542 42.0279 190.542 37.7079V27.6579H186.972V23.6579H190.542V19.1279L195.922 17.6379V23.6379H202.282V27.6379H195.922V36.8579C195.873 37.2258 195.909 37.6001 196.028 37.9518C196.146 38.3035 196.344 38.6232 196.606 38.8861C196.868 39.149 197.187 39.3482 197.539 39.4682C197.89 39.5881 198.264 39.6257 198.632 39.5779C199.737 39.6034 200.81 39.2064 201.632 38.4679L202.482 42.0279Z" fill="#0099FE"/>
<path d="M223.772 30.398V43.2881H218.392V31.968C218.392 28.598 216.932 27.498 214.892 27.498C212.612 27.498 210.372 28.9881 210.372 32.9181V43.2881H204.992V15.028H210.392V27.028C210.958 25.8481 211.862 24.8633 212.989 24.199C214.116 23.5348 215.416 23.2211 216.722 23.298C220.782 23.258 223.772 25.648 223.772 30.398Z" fill="#0099FE"/>
<path d="M258.052 30.398V43.2881H252.672V31.458C252.672 28.598 251.252 27.458 249.292 27.458C246.892 27.458 244.972 29.258 244.972 32.678V43.248H239.592V31.458C239.592 28.598 238.172 27.458 236.172 27.458C234.172 27.458 231.852 28.988 231.852 32.838V43.248H226.472V23.648H231.302L231.462 27.138C232.061 25.933 232.994 24.9262 234.151 24.2381C235.307 23.55 236.637 23.2097 237.982 23.2581C239.332 23.1773 240.674 23.5191 241.821 24.236C242.968 24.9528 243.863 26.0091 244.382 27.2581C245 26.025 245.956 24.9937 247.139 24.2852C248.323 23.5767 249.683 23.2204 251.062 23.2581C254.872 23.2581 258.052 25.568 258.052 30.398Z" fill="#0099FE"/>
<path d="M295.022 38.928V43.288H275.942V17.358H281.392V38.928H295.022Z" fill="#0099FE"/>
<path d="M314.462 36.958H304.462L302.392 43.288H296.862L306.322 17.358H312.802L322.272 43.288H316.652L314.462 36.958ZM313.132 32.958L310.692 25.648L309.512 21.718H309.392L308.292 25.568L305.782 32.958H313.132Z" fill="#0099FE"/>
<path d="M324.172 17.358H335.522C341.812 17.358 344.712 19.958 344.712 24.428C344.759 25.8301 344.277 27.1987 343.362 28.262C342.447 29.3253 341.165 30.0057 339.772 30.168C343.382 30.678 345.382 33.108 345.382 36.168C345.382 40.638 342.082 43.278 335.922 43.278H324.172V17.358ZM334.782 28.238C337.682 28.238 339.102 27.138 339.102 24.908C339.102 22.678 337.682 21.568 334.782 21.568H329.442V28.238H334.782ZM335.442 39.238C338.352 39.238 339.772 38.018 339.772 35.818C339.772 33.618 338.352 32.448 335.442 32.448H329.442V39.238H335.442Z" fill="#0099FE"/>
<path d="M369.142 21.958L365.392 25.608C364.052 22.818 361.892 21.448 358.392 21.448C355.132 21.448 353.482 22.778 353.482 24.628C353.482 26.478 354.892 27.298 359.482 28.128C366.482 29.418 369.102 31.578 369.102 35.898C369.102 40.768 364.662 43.678 358.462 43.678C352.562 43.678 349.232 41.988 347.032 38.848L350.252 34.998C352.252 38.378 354.762 39.278 358.252 39.278C361.592 39.278 363.392 38.178 363.392 36.218C363.392 34.798 362.022 33.978 357.742 33.108C350.512 31.658 347.742 29.458 347.742 25.108C347.742 20.518 351.632 16.938 358.352 16.938C363.212 16.968 366.512 18.498 369.142 21.958Z" fill="#0099FE"/>
</g>
<defs>
<linearGradient id="paint0_linear_1210_9191" x1="56.9862" y1="9.84688" x2="16.0674" y2="54.4918" gradientUnits="userSpaceOnUse">
<stop stop-color="#2EB7FF"/>
<stop offset="1" stop-color="#0099FE"/>
</linearGradient>
<linearGradient id="paint1_linear_1210_9191" x1="6427.11" y1="1675.48" x2="5780.74" y2="2380.64" gradientUnits="userSpaceOnUse">
<stop stop-color="#2EB7FF"/>
<stop offset="1" stop-color="#0099FE"/>
</linearGradient>
<linearGradient id="paint2_linear_1210_9191" x1="8913.37" y1="2540.17" x2="8156.78" y2="3365.56" gradientUnits="userSpaceOnUse">
<stop stop-color="#2EB7FF"/>
<stop offset="1" stop-color="#0099FE"/>
</linearGradient>
<clipPath id="clip0_1210_9191">
<rect width="369" height="64" fill="white" transform="translate(0.302246 0.338013)"/>
</clipPath>
</defs>
</svg>
