<svg width="21" height="21" viewBox="0 0 21 21" fill="none" xmlns="http://www.w3.org/2000/svg">
<path d="M12.2346 10.3115L18.6198 3.90237C18.7053 3.8162 18.773 3.71401 18.8189 3.60165C18.8648 3.4893 18.8881 3.36899 18.8874 3.24763C18.8888 3.007 18.7961 2.77535 18.629 2.6021C18.4572 2.43174 18.2252 2.33569 17.9831 2.33467C17.8617 2.33397 17.7413 2.35723 17.6289 2.40312C17.5165 2.44901 17.4142 2.51663 17.328 2.6021L10.9059 8.96512L4.44682 2.6021C4.36261 2.51584 4.26229 2.44692 4.15155 2.39922C4.03333 2.356 3.90835 2.33414 3.78246 2.33467C3.69367 2.34359 3.60665 2.36533 3.5241 2.39922C3.4174 2.4452 3.32035 2.5109 3.23806 2.59288C3.15254 2.67905 3.08488 2.78124 3.03896 2.8936C2.99304 3.00595 2.96977 3.12626 2.97047 3.24763C2.96902 3.48825 3.06174 3.7199 3.22883 3.89315L9.57715 10.3115L3.19192 16.7667C3.1064 16.8529 3.03874 16.9551 2.99283 17.0674C2.94691 17.1798 2.92363 17.3001 2.92433 17.4215C2.92289 17.6621 3.0156 17.8937 3.18269 18.067C3.26691 18.1532 3.36722 18.2222 3.47797 18.2699C3.59241 18.3152 3.71476 18.3371 3.83783 18.3344C3.95491 18.3372 4.07126 18.3152 4.17923 18.2699C4.28415 18.2055 4.37513 18.1209 4.44682 18.0209L10.9059 11.6302L17.3649 18.0209C17.4511 18.1063 17.5534 18.174 17.6658 18.2199C17.7782 18.2658 17.8986 18.289 18.02 18.2883C18.2576 18.2874 18.4857 18.1949 18.6567 18.0301C18.7422 17.9439 18.8099 17.8417 18.8558 17.7294C18.9017 17.617 18.925 17.4967 18.9243 17.3754C18.9257 17.1347 18.833 16.9031 18.6659 16.7298L12.2346 10.3115Z" fill="#475F7B" stroke="#475F7B" stroke-width="0.3"/>
</svg>
