<svg width="15" height="14" viewBox="0 0 15 14" fill="none" xmlns="http://www.w3.org/2000/svg">
<path d="M3.98004 5.96706C3.98004 5.96706 13.1105 5.96706 13.3599 5.96706C13.6093 5.96706 13.8768 6.06312 14.0739 6.26017C14.2709 6.45722 14.3821 6.71016 14.3821 6.98923C14.3821 7.26829 14.2712 7.53593 14.0739 7.73326C13.8766 7.93059 13.6089 8.04145 13.3299 8.04145H3.94998L7.95847 12.0499C8.05708 12.1487 8.13527 12.2659 8.18857 12.3948C8.24188 12.5238 8.26925 12.662 8.26913 12.8015C8.26816 13.0089 8.20592 13.2114 8.09024 13.3836C7.97455 13.5557 7.81058 13.6898 7.61891 13.769C7.42725 13.8483 7.21644 13.8691 7.01297 13.8289C6.80951 13.7887 6.62246 13.6893 6.47533 13.5431L0.693074 7.76086C0.495441 7.56454 0.383723 7.29786 0.382416 7.01929C0.378791 6.87926 0.404565 6.74002 0.458074 6.61056C0.511583 6.4811 0.591638 6.3643 0.693074 6.2677L6.50539 0.455381C6.70472 0.258704 6.97402 0.149268 7.25405 0.151147C7.53407 0.153026 7.80188 0.266067 7.99855 0.465402C8.19523 0.664737 8.30467 0.934037 8.30279 1.21406C8.30091 1.49408 8.18787 1.76189 7.98853 1.95857L3.98004 5.96706Z" fill="#475F7B"/>
</svg>
