<svg width="101" height="123" viewBox="0 0 101 123" fill="none" xmlns="http://www.w3.org/2000/svg">
<path fill-rule="evenodd" clip-rule="evenodd" d="M17.3376 0L20.807 46.3771H75.7232L76.9495 0H17.3376Z" fill="#2EB7FF"/>
<path fill-rule="evenodd" clip-rule="evenodd" d="M2.53061 29.2311C4.68202 30.0894 6.83429 30.9476 8.98569 31.8067C9.61831 32.0585 10.4396 31.5316 10.5832 30.9C10.7537 30.1508 10.3539 29.5737 9.67629 29.3038C7.52488 28.4455 5.37261 27.5864 3.22034 26.7281C2.58773 26.4755 1.76732 27.0033 1.62367 27.6348C1.45318 28.3841 1.853 28.9612 2.53061 29.2311Z" fill="#2EB7FF"/>
<path fill-rule="evenodd" clip-rule="evenodd" d="M1.29908 40.7363C3.42798 40.9379 5.55775 41.1404 7.68752 41.3419C8.36514 41.406 9.01506 40.6991 8.98563 40.0442C8.95102 39.2863 8.4136 38.8147 7.68752 38.7464C5.55775 38.5448 3.42798 38.3424 1.29908 38.1408C0.620596 38.0767 -0.0284601 38.7836 0.000963749 39.4385C0.0347147 40.1964 0.572999 40.668 1.29908 40.7363Z" fill="#2EB7FF"/>
<path fill-rule="evenodd" clip-rule="evenodd" d="M6.02634 53.9508C7.56417 52.9091 9.102 51.8665 10.6398 50.824C10.8562 50.6769 11.0734 50.5298 11.2906 50.3828C11.8514 50.0021 12.1534 49.2234 11.7562 48.6065C11.3962 48.0485 10.581 47.7336 9.97953 48.1411C8.44256 49.1836 6.90473 50.2262 5.3669 51.2687C5.14968 51.4158 4.93247 51.5629 4.71611 51.7099C4.15447 52.0906 3.85244 52.8693 4.24966 53.4853C4.61054 54.0433 5.42488 54.3591 6.02634 53.9508Z" fill="#2EB7FF"/>
<path fill-rule="evenodd" clip-rule="evenodd" d="M97.6698 29.3981C94.5829 30.4934 91.4943 31.5879 88.4074 32.6823C87.7462 32.9168 87.3048 33.5683 87.5004 34.2794C87.6761 34.9188 88.4333 35.4206 89.0979 35.1853C92.1849 34.0908 95.2718 32.9964 98.3604 31.9011C99.0207 31.6675 99.4621 31.0151 99.2674 30.3048C99.0917 29.6654 98.3344 29.1628 97.6698 29.3981Z" fill="#2EB7FF"/>
<mask id="mask0_17_2431" style="mask-type:alpha" maskUnits="userSpaceOnUse" x="89" y="43" width="12" height="4">
<path fill-rule="evenodd" clip-rule="evenodd" d="M89.522 43.082H100.5V46.8153H89.522V43.082Z" fill="white"/>
</mask>
<g mask="url(#mask0_17_2431)">
<path fill-rule="evenodd" clip-rule="evenodd" d="M99.2016 44.2124C96.408 43.8378 93.6154 43.464 90.821 43.0894C90.1459 42.9994 89.4951 43.7513 89.5228 44.3872C89.5583 45.1676 90.0966 45.588 90.821 45.6849C93.6154 46.0596 96.408 46.4333 99.2016 46.8079C99.8774 46.8979 100.528 46.1461 100.5 45.5102C100.465 44.7298 99.9259 44.3093 99.2016 44.2124Z" fill="#2EB7FF"/>
</g>
<path fill-rule="evenodd" clip-rule="evenodd" d="M94.6869 57.4757L87.5551 54.3049C86.9363 54.0297 86.1306 54.105 85.7784 54.7703C85.4798 55.3353 85.582 56.2515 86.244 56.5465C88.6213 57.6029 90.9985 58.6593 93.3767 59.7166C93.9955 59.9917 94.8003 59.9173 95.1525 59.2511C95.4511 58.6861 95.3498 57.7699 94.6869 57.4757Z" fill="#2EB7FF"/>
<path fill-rule="evenodd" clip-rule="evenodd" d="M82.8396 69.7051C81.8322 67.684 80.8258 65.6621 79.8193 63.641L79.3909 62.7819C79.0872 62.1728 78.1759 61.9539 77.6142 62.3164C76.9911 62.7179 76.8241 63.4403 77.1486 64.0918C78.156 66.1137 79.1625 68.1348 80.1698 70.1558C80.3126 70.4422 80.4545 70.7294 80.5973 71.0158C80.9011 71.6249 81.8123 71.8429 82.374 71.4813C82.9971 71.079 83.1641 70.3566 82.8396 69.7051Z" fill="#2EB7FF"/>
<path fill-rule="evenodd" clip-rule="evenodd" d="M43.3609 66.55C43.3609 66.55 42.0481 66.5448 41.6907 68.1523C41.3333 69.7589 43.2268 70.0938 43.2268 70.0938C43.2268 70.0938 43.3393 75.9787 46.8174 76.3975C49.8636 76.7634 52.2314 75.3411 52.2703 69.733C52.2703 69.733 53.5701 69.2805 53.5701 67.9715C53.5701 66.6616 52.0271 66.3397 52.0271 66.3397C51.057 60.5915 47.2821 60.7446 46.2618 61.1859C45.4171 61.5501 43.3609 62.3547 43.3609 66.55Z" fill="#304156"/>
<path fill-rule="evenodd" clip-rule="evenodd" d="M72.7065 103.949C71.6213 103.931 67.9546 104.904 67.8187 102.388C67.6551 99.3573 70.016 83.771 69.9182 71.1611C69.8758 65.6438 69.1211 55.1526 68.2531 51.3597C68.2531 51.3597 70.241 44.6736 64.8019 44.8959C63.8343 44.9357 60.9119 45.0707 60.4662 45.6149C60.4662 45.6149 59.3273 41.95 58.1806 42.5868C57.034 43.2235 57.2789 45.2117 57.9167 47.6948C58.5536 50.1787 60.5276 51.961 60.5276 51.961C60.5276 51.961 60.1667 59.9743 59.3896 66.4536C58.9794 69.8737 58.4982 75.6306 54.3209 78.1076C50.8593 80.1606 47.6997 81.0881 40.5523 78.1456C37.8695 77.0417 35.9578 72.0989 35.5917 69.1365C35.0361 64.6315 35.2845 51.961 35.2845 51.961C35.2845 51.961 37.2585 50.1787 37.8955 47.6948C38.5324 45.2117 39.3606 43.3014 38.2139 42.6646C37.0673 42.0279 34.9349 45.505 34.9349 45.505C34.4892 44.9608 31.5382 44.8977 31.5382 44.8977C26.4072 43.9373 27.5357 50.5083 27.5357 50.5083C25.0814 58.1263 25.129 66.8663 25.2856 71.6308C25.5608 80.0542 26.6893 94.9898 26.8286 98.916C26.8641 99.9265 26.6503 102.614 25.4777 102.683C21.4856 102.918 17.6086 101.64 16.1313 108.754C15.1811 113.331 16.7319 116.163 18.5847 117.409C24.0169 121.062 36.053 122.432 56.6194 121.272C73.1851 120.339 74.3534 119.629 77.3053 117.168C80.0988 114.841 78.9625 104.055 72.7065 103.949Z" fill="#304156"/>
<path fill-rule="evenodd" clip-rule="evenodd" d="M47.6107 66.0667C47.6107 66.5556 47.2144 66.9518 46.7254 66.9518C46.2356 66.9518 45.8393 66.5556 45.8393 66.0667C45.8393 65.5779 46.2356 65.1816 46.7254 65.1816C47.2144 65.1816 47.6107 65.5779 47.6107 66.0667Z" fill="white"/>
<path fill-rule="evenodd" clip-rule="evenodd" d="M50.434 66.0667C50.434 66.5556 50.0377 66.9518 49.5487 66.9518C49.0589 66.9518 48.6626 66.5556 48.6626 66.0667C48.6626 65.5779 49.0589 65.1816 49.5487 65.1816C50.0377 65.1816 50.434 65.5779 50.434 66.0667Z" fill="white"/>
<path d="M16.0108 121.674H79.2124" stroke="#2EB7FF" stroke-width="2" stroke-linecap="round"/>
<path fill-rule="evenodd" clip-rule="evenodd" d="M26.981 23.1883L33.2656 19.1341L43.3917 32.1654L63.5973 6.21265L71.7616 10.7834L43.3917 40.164L26.981 23.1883Z" fill="white"/>
</svg>
