<svg width="101" height="123" viewBox="0 0 101 123" fill="none" xmlns="http://www.w3.org/2000/svg">
<path fill-rule="evenodd" clip-rule="evenodd" d="M2.52774 29.2057C4.6767 30.0632 6.82653 30.9207 8.97548 31.779C9.60738 32.0306 10.4277 31.5042 10.5712 30.8731C10.7415 30.1245 10.3421 29.548 9.66529 29.2783C7.51634 28.4208 5.36651 27.5624 3.21669 26.7049C2.5848 26.4525 1.76532 26.9798 1.62183 27.6108C1.45154 28.3594 1.8509 28.936 2.52774 29.2057Z" fill="#F11650"/>
<path fill-rule="evenodd" clip-rule="evenodd" d="M1.2976 40.7006C3.42408 40.902 5.55143 41.1043 7.67878 41.3057C8.35562 41.3697 9.0048 40.6634 8.97541 40.0091C8.94084 39.2518 8.40403 38.7807 7.67878 38.7124C5.55143 38.511 3.42408 38.3087 1.2976 38.1073C0.61989 38.0433 -0.0284278 38.7496 0.000962653 39.404C0.0346752 40.1612 0.572347 40.6323 1.2976 40.7006Z" fill="#F11650"/>
<path fill-rule="evenodd" clip-rule="evenodd" d="M6.01948 53.9038C7.55556 52.863 9.09164 51.8214 10.6277 50.7797C10.8438 50.6328 11.0608 50.4858 11.2778 50.3389C11.8379 49.9585 12.1396 49.1806 11.7428 48.5642C11.3832 48.0067 10.5689 47.692 9.96817 48.0992C8.43295 49.1408 6.89687 50.1824 5.36079 51.2241C5.14382 51.371 4.92685 51.518 4.71074 51.6649C4.14973 52.0453 3.84805 52.8232 4.24482 53.4387C4.60528 53.9963 5.41871 54.3118 6.01948 53.9038Z" fill="#F11650"/>
<path fill-rule="evenodd" clip-rule="evenodd" d="M97.5587 29.3724C94.4753 30.4668 91.3902 31.5603 88.3068 32.6538C87.6464 32.888 87.2055 33.5389 87.4009 34.2495C87.5764 34.8883 88.3327 35.3897 88.9966 35.1546C92.08 34.0611 95.1634 32.9676 98.2485 31.8732C98.9081 31.6398 99.3489 30.988 99.1544 30.2783C98.979 29.6395 98.2226 29.1373 97.5587 29.3724Z" fill="#F11650"/>
<mask id="mask0_35_781" style="mask-type:alpha" maskUnits="userSpaceOnUse" x="89" y="43" width="12" height="4">
<path fill-rule="evenodd" clip-rule="evenodd" d="M89.4202 43.0444H100.386V46.7745H89.4202V43.0444Z" fill="white"/>
</mask>
<g mask="url(#mask0_35_781)">
<path fill-rule="evenodd" clip-rule="evenodd" d="M99.0887 44.1738C96.2984 43.7995 93.5089 43.4261 90.7177 43.0518C90.0434 42.9619 89.3934 43.7131 89.421 44.3484C89.4565 45.1281 89.9941 45.5483 90.7177 45.6451C93.5089 46.0194 96.2984 46.3928 99.0887 46.7671C99.7638 46.857 100.414 46.1058 100.385 45.4705C100.351 44.6907 99.8123 44.2706 99.0887 44.1738Z" fill="#F11650"/>
</g>
<path fill-rule="evenodd" clip-rule="evenodd" d="M94.5792 57.4255L87.4555 54.2574C86.8374 53.9825 86.0327 54.0577 85.6808 54.7224C85.3826 55.2869 85.4846 56.2023 86.1459 56.4971C88.5205 57.5526 90.8951 58.608 93.2705 59.6643C93.8886 59.9392 94.6925 59.8649 95.0443 59.1993C95.3425 58.6348 95.2414 57.7194 94.5792 57.4255Z" fill="#F11650"/>
<path fill-rule="evenodd" clip-rule="evenodd" d="M82.7454 69.644C81.7392 67.6247 80.7339 65.6046 79.7285 63.5853L79.3006 62.7269C78.9972 62.1183 78.087 61.8996 77.526 62.2618C76.9036 62.6629 76.7368 63.3847 77.0609 64.0356C78.0671 66.0558 79.0724 68.0751 80.0786 70.0944C80.2213 70.3805 80.363 70.6675 80.5056 70.9536C80.8091 71.5622 81.7193 71.78 82.2803 71.4187C82.9027 71.0167 83.0695 70.2949 82.7454 69.644Z" fill="#F11650"/>
<path fill-rule="evenodd" clip-rule="evenodd" d="M43.3116 66.4919C43.3116 66.4919 42.0003 66.4867 41.6433 68.0928C41.2863 69.6981 43.1777 70.0326 43.1777 70.0326C43.1777 70.0326 43.29 75.9124 46.7642 76.3308C49.8069 76.6964 52.172 75.2753 52.2109 69.6721C52.2109 69.6721 53.5093 69.22 53.5093 67.9122C53.5093 66.6034 51.968 66.2819 51.968 66.2819C50.999 60.5386 47.2284 60.6916 46.2092 61.1325C45.3655 61.4964 43.3116 62.3003 43.3116 66.4919Z" fill="#304156"/>
<path fill-rule="evenodd" clip-rule="evenodd" d="M17.3179 0L20.7834 46.3366H75.6372L76.862 0H17.3179ZM31.9345 14.4703L36.4253 8.98158L47.4097 20.4237L55.8853 8.98158L60.8751 13.4724L51.2576 24.4319L60.3762 33.9304L57.3823 37.4232L47.5999 28.5999L39.4191 37.9222L35.9263 35.9263L43.8552 25.2223L31.9345 14.4703Z" fill="#F11650"/>
<path fill-rule="evenodd" clip-rule="evenodd" d="M72.6239 103.858C71.5399 103.84 67.8773 104.812 67.7416 102.299C67.5782 99.2705 69.9364 83.6979 69.8387 71.0989C69.7963 65.5865 69.0425 55.1045 68.1755 51.3149C68.1755 51.3149 70.1611 44.6346 64.7282 44.8567C63.7618 44.8965 60.8426 45.0314 60.3974 45.5751C60.3974 45.5751 59.2599 41.9134 58.1145 42.5496C56.9691 43.1858 57.2138 45.1723 57.8508 47.6531C58.4871 50.1349 60.4588 51.9156 60.4588 51.9156C60.4588 51.9156 60.0984 59.9219 59.3221 66.3956C58.9124 69.8127 58.4317 75.5645 54.2592 78.0394C50.8015 80.0907 47.6455 81.0173 40.5062 78.0774C37.8265 76.9744 35.9169 72.036 35.5513 69.0762C34.9963 64.5751 35.2444 51.9156 35.2444 51.9156C35.2444 51.9156 37.2162 50.1349 37.8524 47.6531C38.4886 45.1723 39.3159 43.2636 38.1705 42.6274C37.0251 41.9912 34.8952 45.4653 34.8952 45.4653C34.45 44.9216 31.5023 44.8585 31.5023 44.8585C26.3772 43.899 27.5044 50.4643 27.5044 50.4643C25.0529 58.0755 25.1004 66.8079 25.2569 71.5683C25.5318 79.9843 26.659 94.9069 26.7981 98.8297C26.8336 99.8393 26.6201 102.524 25.4488 102.593C21.4612 102.828 17.5886 101.552 16.113 108.659C15.1639 113.232 16.7129 116.062 18.5636 117.307C23.9896 120.956 36.012 122.325 56.5551 121.166C73.1019 120.234 74.2689 119.525 77.2174 117.066C80.0078 114.74 78.8728 103.964 72.6239 103.858Z" fill="#304156"/>
<path fill-rule="evenodd" clip-rule="evenodd" d="M47.5566 66.0091C47.5566 66.4975 47.1607 66.8934 46.6723 66.8934C46.183 66.8934 45.7871 66.4975 45.7871 66.0091C45.7871 65.5207 46.183 65.1248 46.6723 65.1248C47.1607 65.1248 47.5566 65.5207 47.5566 66.0091Z" fill="white"/>
<path fill-rule="evenodd" clip-rule="evenodd" d="M50.3767 66.0091C50.3767 66.4975 49.9808 66.8934 49.4924 66.8934C49.0031 66.8934 48.6072 66.4975 48.6072 66.0091C48.6072 65.5207 49.0031 65.1248 49.4924 65.1248C49.9808 65.1248 50.3767 65.5207 50.3767 66.0091Z" fill="white"/>
<path d="M15.9926 121.568H79.1223" stroke="#F11650" stroke-width="2" stroke-linecap="round"/>
</svg>
